<svg width="24" height="24" viewBox="0 0 24 24" fill="none" xmlns="http://www.w3.org/2000/svg">
<path d="M15.707 8.29303C15.8945 8.48056 15.9998 8.73487 15.9998 9.00003C15.9998 9.26519 15.8945 9.5195 15.707 9.70703L9.70699 15.707C9.61474 15.8025 9.5044 15.8787 9.38239 15.9311C9.26039 15.9835 9.12917 16.0111 8.99639 16.0123C8.86361 16.0134 8.73193 15.9881 8.60904 15.9379C8.48614 15.8876 8.37449 15.8133 8.28059 15.7194C8.1867 15.6255 8.11245 15.5139 8.06217 15.391C8.01189 15.2681 7.98659 15.1364 7.98774 15.0036C7.98889 14.8709 8.01648 14.7396 8.06889 14.6176C8.1213 14.4956 8.19748 14.3853 8.29299 14.293L14.293 8.29303C14.4805 8.10556 14.7348 8.00024 15 8.00024C15.2652 8.00024 15.5195 8.10556 15.707 8.29303Z" fill="white"/>
<path d="M19.242 4.757C21.585 7.101 21.584 10.9 19.19 13.291L18.656 13.755C18.5569 13.8411 18.4417 13.9069 18.3171 13.9486C18.1926 13.9902 18.061 14.0069 17.93 13.9977C17.6654 13.9792 17.419 13.8562 17.245 13.656C17.071 13.4558 16.9837 13.1946 17.0023 12.93C17.0208 12.6654 17.1438 12.419 17.344 12.245L17.827 11.829C18.1985 11.4576 18.4931 11.0166 18.6941 10.5313C18.8952 10.046 18.9986 9.5258 18.9986 9.0005C18.9986 8.47519 18.8952 7.95503 18.6941 7.46972C18.4931 6.9844 18.1985 6.54343 17.827 6.172C16.265 4.609 13.732 4.609 12.22 6.118L11.757 6.654C11.6711 6.75341 11.5665 6.83493 11.4491 6.89391C11.3317 6.95288 11.2039 6.98816 11.0728 6.99773C10.9418 7.00729 10.8102 6.99095 10.6855 6.94965C10.5608 6.90835 10.4454 6.84288 10.346 6.757C10.2466 6.67111 10.1651 6.56649 10.1061 6.4491C10.0471 6.33171 10.0118 6.20385 10.0023 6.07283C9.99271 5.94181 10.009 5.81018 10.0503 5.68547C10.0917 5.56076 10.1571 5.44541 10.243 5.346L10.756 4.756C11.3132 4.1988 11.9748 3.75683 12.7028 3.45533C13.4309 3.15382 14.2112 2.99869 14.9992 2.99878C15.7872 2.99887 16.5675 3.15419 17.2955 3.45587C18.0235 3.75755 18.6849 4.19967 19.242 4.757ZM6.75 10.338C6.92536 10.5368 7.01459 10.7971 6.99809 11.0617C6.98159 11.3263 6.8607 11.5735 6.662 11.749L6.179 12.174C5.80515 12.5433 5.50832 12.9831 5.30573 13.4679C5.10314 13.9528 4.99882 14.473 4.99882 14.9985C4.99882 15.524 5.10314 16.0442 5.30573 16.5291C5.50832 17.0139 5.80515 17.4537 6.179 17.823C6.93318 18.5693 7.9493 18.991 9.01026 18.9981C10.0712 19.0052 11.0929 18.5971 11.857 17.861L12.197 17.403C12.2754 17.2975 12.3738 17.2086 12.4866 17.1411C12.5994 17.0737 12.7243 17.0292 12.8543 17.01C12.9843 16.9909 13.1168 16.9976 13.2443 17.0297C13.3717 17.0617 13.4915 17.1186 13.597 17.197C13.7025 17.2754 13.7914 17.3738 13.8589 17.4866C13.9263 17.5994 13.9708 17.7243 13.9899 17.8543C14.0091 17.9843 14.0024 18.1168 13.9703 18.2443C13.9383 18.3717 13.8814 18.4915 13.803 18.597L13.406 19.131L13.306 19.245C12.1698 20.3677 10.6368 20.9974 9.0395 20.9974C7.44216 20.9974 5.9092 20.3677 4.773 19.245C4.21117 18.6896 3.76515 18.0282 3.46081 17.2992C3.15646 16.5702 2.99983 15.788 3 14.998C3 13.403 3.638 11.874 4.814 10.714L5.338 10.251C5.53669 10.0755 5.79693 9.98611 6.06151 10.0024C6.32609 10.0187 6.57437 10.1394 6.75 10.338Z" fill="white"/>
</svg>
